<svg width="54" height="54" viewBox="0 0 54 54" fill="none" xmlns="http://www.w3.org/2000/svg">
<path d="M19.8571 23.1428C19.8571 21.1618 18.2667 19.5714 16.2857 19.5714C14.3047 19.5714 12.7143 21.1618 12.7143 23.1428C12.7143 25.1238 14.3047 26.7142 16.2857 26.7142C18.2667 26.7142 19.8571 25.1238 19.8571 23.1428ZM30.5714 23.1428C30.5714 21.1618 28.981 19.5714 27 19.5714C25.019 19.5714 23.4286 21.1618 23.4286 23.1428C23.4286 25.1238 25.019 26.7142 27 26.7142C28.981 26.7142 30.5714 25.1238 30.5714 23.1428ZM41.2857 23.1428C41.2857 21.1618 39.6953 19.5714 37.7143 19.5714C35.7333 19.5714 34.1429 21.1618 34.1429 23.1428C34.1429 25.1238 35.7333 26.7142 37.7143 26.7142C39.6953 26.7142 41.2857 25.1238 41.2857 23.1428ZM27 8.85707C38.6071 8.85707 48.4286 15.3861 48.4286 23.1428C48.4286 30.8995 38.6071 37.4285 27 37.4285C25.8002 37.4285 24.5725 37.3448 23.3728 37.2053L21.7824 37.0379L20.5826 38.0981C18.2946 40.1071 15.7277 41.6975 12.9096 42.8694C13.635 41.5859 14.3326 40.0513 14.8627 38.0702L15.6161 35.3917L13.1886 33.9966C8.36161 31.2622 5.57143 27.3002 5.57143 23.1428C5.57143 15.3861 15.3929 8.85707 27 8.85707ZM52 23.1428C52 13.2935 40.8114 5.28564 27 5.28564C13.1886 5.28564 2 13.2935 2 23.1428C2 28.8069 5.68304 33.8571 11.4308 37.1216C10.1194 41.7812 8.11049 43.4553 6.35268 45.4363C5.93415 45.9385 5.45982 46.3571 5.59933 47.0546C5.59933 47.0546 5.59933 47.0546 5.59933 47.0825C5.73884 47.6964 6.24107 48.1428 6.79911 48.1428C6.82701 48.1428 6.88281 48.1428 6.93862 48.1428C8.02679 48.0033 9.11496 47.808 10.1194 47.5289C14.9464 46.3013 19.2991 44.0133 22.9542 40.7767C24.2656 40.9162 25.6328 40.9999 27 40.9999C40.8114 40.9999 52 33.02 52 23.1428Z" fill="#EBEAED"/>
</svg>
